<svg width="64" height="64" viewBox="0 0 64 64" fill="none" xmlns="http://www.w3.org/2000/svg">
<path d="M57.5377 25.8088H40.4568L45.5169 20.7488C47.8662 18.3995 47.8662 14.5844 45.5169 12.2284C43.1675 9.87911 39.3524 9.87911 36.9965 12.2284L21.649 27.5758C20.2032 29.0885 19.4938 31.2772 20.0694 33.3253C20.2233 33.8807 20.4576 34.4966 20.7722 34.9851C21.0332 35.3867 21.3344 35.7348 21.649 36.0963L37.3244 51.7716C38.5024 52.9496 40.0419 53.5386 41.5813 53.5386C43.1207 53.5386 44.6668 52.9496 45.8381 51.7716C48.1874 49.4223 48.1874 45.6072 45.8381 43.2512L40.4434 37.8565H57.5177C60.8442 37.8565 63.5416 35.1592 63.5416 31.8326C63.5416 28.5062 60.8643 25.8088 57.5377 25.8088Z" fill="#5E9C59"/>
</svg>
