<svg width="100" height="100" viewBox="0 0 100 100" fill="none" xmlns="http://www.w3.org/2000/svg">
<path d="M89.9027 40.3263H63.2137L71.1201 32.42C74.7909 28.7493 74.7909 22.7882 71.1201 19.1069C67.4492 15.4361 61.4881 15.4361 57.807 19.1069L33.8265 43.0873C31.5676 45.4508 30.4591 48.8706 31.3584 52.0708C31.5989 52.9387 31.965 53.9009 32.4565 54.6643C32.8644 55.2917 33.335 55.8357 33.8265 56.4005L58.3193 80.8932C60.16 82.7338 62.5654 83.6542 64.9707 83.6542C67.3761 83.6542 69.7919 82.7337 71.6221 80.8932C75.2929 77.2224 75.2929 71.2613 71.6221 67.58L63.1929 59.1508H89.8714C95.0691 59.1508 99.2837 54.9363 99.2837 49.7385C99.2837 44.541 95.1004 40.3263 89.9027 40.3263Z" fill="black"/>
</svg>
