<svg width="114" height="114" viewBox="0 0 114 114" fill="none" xmlns="http://www.w3.org/2000/svg">
<g clip-path="url(#clip0_52_544)">
<path d="M58.8608 21.8298C64.0873 21.8298 68.3242 17.5929 68.3242 12.3664C68.3242 7.13991 64.0873 2.90302 58.8608 2.90302C53.6344 2.90302 49.3975 7.13991 49.3975 12.3664C49.3975 17.5929 53.6344 21.8298 58.8608 21.8298Z" fill="#5E9C59"/>
<path d="M93.2817 45.2201C91.2008 44.0311 88.5496 44.7543 87.3606 46.8355C86.6604 48.061 86.6279 49.4827 87.1409 50.6886L86.4575 51.8847L79.9501 44.9883L74.5716 28.4919C74.0341 26.8433 72.5764 25.7536 70.9532 25.6029V25.5435H49.9703C49.9208 25.5221 49.8743 25.4971 49.8235 25.4773L37.1619 20.5152L36.086 8.23922L38.3905 8.24857C39.179 9.29528 40.4263 9.97728 41.8381 9.98329C44.235 9.99286 46.186 8.05797 46.1955 5.66129C46.2051 3.26439 44.2702 1.31347 41.8733 1.30389C40.4619 1.2981 39.2086 1.97008 38.4119 3.01034L35.5387 2.99876C34.9767 1.12532 33.1614 -0.159634 31.1359 0.016042C29.38 0.170121 27.9724 1.38071 27.4803 2.96625L26.3363 2.96157C25.5479 1.91486 24.3006 1.23264 22.8887 1.22685C20.4922 1.21683 18.5411 3.15194 18.5313 5.54863C18.5215 7.94553 20.4566 9.89645 22.8535 9.90603C24.2649 9.91159 25.5183 9.23984 26.3149 8.19958L27.6239 8.2047L28.9953 23.8526C29.1351 25.4466 30.1656 26.824 31.6554 27.4075L46.7486 33.3224C46.7557 33.3253 46.7631 33.3271 46.7707 33.3298V62.8537L36.3267 107.266C35.6343 110.211 37.4603 113.161 40.4056 113.853C43.3524 114.546 46.3004 112.719 46.9929 109.774L57.5858 64.7298H60.1383L70.7312 109.774C71.4237 112.719 74.3721 114.546 77.3186 113.853C80.2641 113.161 82.0901 110.211 81.3974 107.266L70.9532 62.8539V44.5777L72.2313 48.4983C72.4241 49.0899 72.7456 49.6314 73.1727 50.0838L82.0879 59.5323L81.1505 61.1731C79.8511 61.3434 78.6431 62.0933 77.9429 63.319C76.7539 65.4 77.4771 68.0512 79.5583 69.2401C81.6392 70.4291 84.2904 69.7059 85.4794 67.6248C86.1796 66.3993 86.2122 64.9776 85.6992 63.7717L86.2369 62.8305C87.6038 63.1166 88.9947 62.717 89.9953 61.7731C91.6704 60.1923 91.7608 57.5649 90.2135 55.8705L91.6895 53.287C92.9889 53.1166 94.1969 52.3665 94.8971 51.141C96.0861 49.0601 95.3627 46.4093 93.2817 45.2201Z" fill="#5E9C59"/>
</g>
<defs>
<clipPath id="clip0_52_544">
<rect width="114" height="114" fill="white"/>
</clipPath>
</defs>
</svg>
