<svg width="100" height="88" viewBox="0 0 100 88" fill="none" xmlns="http://www.w3.org/2000/svg">
<path d="M50 0.166656C49.4049 0.166734 48.8157 0.287036 48.2666 0.520597C47.7174 0.754158 47.2192 1.09634 46.8008 1.52733L1.41406 41.8642C1.1306 42.0773 0.900217 42.3551 0.741454 42.6754C0.58269 42.9957 0.499986 43.3495 0.5 43.7083C0.5 44.3161 0.737053 44.899 1.15901 45.3288C1.58097 45.7585 2.15326 46 2.75 46H14V82.6667C14 85.1967 16.016 87.25 18.5 87.25H36.5C38.984 87.25 41 85.1967 41 82.6667V55.1667H59V82.6667C59 85.1967 61.016 87.25 63.5 87.25H81.5C83.984 87.25 86 85.1967 86 82.6667V46H97.25C97.8468 46 98.4191 45.7585 98.841 45.3288C99.263 44.899 99.5 44.3161 99.5 43.7083C99.5 43.3495 99.4173 42.9957 99.2586 42.6754C99.0998 42.3551 98.8694 42.0773 98.586 41.8642L53.2256 1.55419C53.2168 1.5452 53.2081 1.53625 53.1992 1.52733C52.7808 1.09634 52.2826 0.754158 51.7334 0.520597C51.1843 0.287036 50.5951 0.166734 50 0.166656Z" fill="black"/>
</svg>
