<svg width="70" height="70" viewBox="0 0 70 70" fill="none" xmlns="http://www.w3.org/2000/svg">
<path d="M55.5616 4.83801H46.8329C46.3584 3.43348 45.0292 2.41901 43.4665 2.41901H39.7751C38.6548 0.912419 36.8802 0 35 0C33.12 0 31.3452 0.912419 30.2247 2.41901H26.5335C24.9708 2.41901 23.6416 3.43348 23.1671 4.83801H14.4384C11.8125 4.83801 9.67603 6.97445 9.67603 9.60043V65.2376C9.67603 67.8636 11.8125 70 14.4384 70H55.5616C58.1875 70 60.324 67.8636 60.324 65.2376V9.60043C60.324 6.97445 58.1875 4.83801 55.5616 4.83801ZM26.5335 13.1533H43.4665C44.5283 13.1533 45.4822 12.6845 46.1336 11.9438H53.2181V62.8942H16.7819V11.9438H23.8664C24.5178 12.6845 25.4717 13.1533 26.5335 13.1533ZM26.5335 4.68683H30.833C31.2366 4.68683 31.6099 4.47229 31.813 4.12335C32.4892 2.96147 33.6806 2.26782 35 2.26782C36.3196 2.26782 37.5108 2.96147 38.1869 4.1232C38.3899 4.47214 38.7634 4.68683 39.1669 4.68683H43.4665C44.1751 4.68683 44.7516 5.2633 44.7516 5.97192V9.60043C44.7516 10.3091 44.1751 10.8855 43.4665 10.8855H26.5335C25.8249 10.8855 25.2484 10.3091 25.2484 9.60043V5.97192C25.2484 5.2633 25.8249 4.68683 26.5335 4.68683ZM58.0562 65.2376C58.0562 66.6131 56.9371 67.7322 55.5616 67.7322H14.4384C13.0629 67.7322 11.9438 66.6131 11.9438 65.2376V9.60043C11.9438 8.22493 13.0629 7.10583 14.4384 7.10583H22.9806V9.60043C22.9806 9.62583 22.9819 9.65078 22.9825 9.67603H15.6479C15.0216 9.67603 14.514 10.1837 14.514 10.8099V64.0281C14.514 64.6543 15.0216 65.162 15.6479 65.162H54.3521C54.9784 65.162 55.486 64.6543 55.486 64.0281V10.8099C55.486 10.1837 54.9784 9.67603 54.3521 9.67603H47.0175C47.0181 9.65078 47.0194 9.62583 47.0194 9.60043V7.10583H55.5616C56.9371 7.10583 58.0562 8.22493 58.0562 9.60043V65.2376Z" fill="black"/>
<path d="M35.0001 7.10583C35.2993 7.10583 35.5913 6.98488 35.8014 6.77322C36.0131 6.56307 36.134 6.26976 36.134 5.97192C36.134 5.67408 36.0131 5.38078 35.8014 5.17063C35.5913 4.95896 35.2995 4.83801 35.0001 4.83801C34.7008 4.83801 34.409 4.95896 34.1988 5.17063C33.9872 5.38078 33.8662 5.67257 33.8662 5.97192C33.8662 6.27127 33.9872 6.56307 34.1988 6.77322C34.409 6.98488 34.7008 7.10583 35.0001 7.10583Z" fill="black"/>
<path d="M27.743 24.0389H48.3046C48.931 24.0389 49.4385 23.5312 49.4385 22.905C49.4385 22.2787 48.931 21.7711 48.3046 21.7711H27.743C27.1167 21.7711 26.6091 22.2787 26.6091 22.905C26.6091 23.5312 27.1167 24.0389 27.743 24.0389Z" fill="black"/>
<path d="M27.743 36.1339H48.3046C48.931 36.1339 49.4385 35.6262 49.4385 35C49.4385 34.3738 48.931 33.8661 48.3046 33.8661H27.743C27.1167 33.8661 26.6091 34.3738 26.6091 35C26.6091 35.6262 27.1167 36.1339 27.743 36.1339Z" fill="black"/>
<path d="M27.743 48.2289H31.3716C31.9979 48.2289 32.5055 47.7213 32.5055 47.095C32.5055 46.4688 31.9979 45.9611 31.3716 45.9611H27.743C27.1167 45.9611 26.6091 46.4688 26.6091 47.095C26.6091 47.7213 27.1167 48.2289 27.743 48.2289Z" fill="black"/>
<path d="M27.743 30.0864H48.3046C48.931 30.0864 49.4385 29.5787 49.4385 28.9525C49.4385 28.3263 48.931 27.8186 48.3046 27.8186H27.743C27.1167 27.8186 26.6091 28.3263 26.6091 28.9525C26.6091 29.5787 27.1167 30.0864 27.743 30.0864Z" fill="black"/>
<path d="M27.743 42.1814H32.5811C33.2074 42.1814 33.715 41.6737 33.715 41.0475C33.715 40.4213 33.2074 39.9136 32.5811 39.9136H27.743C27.1167 39.9136 26.6091 40.4213 26.6091 41.0475C26.6091 41.6737 27.1167 42.1814 27.743 42.1814Z" fill="black"/>
<path d="M27.743 54.2765H32.5811C33.2074 54.2765 33.715 53.7688 33.715 53.1425C33.715 52.5163 33.2074 52.0086 32.5811 52.0086H27.743C27.1167 52.0086 26.6091 52.5163 26.6091 53.1425C26.6091 53.7688 27.1167 54.2765 27.743 54.2765Z" fill="black"/>
<path d="M21.6954 24.0389H22.9049C23.5313 24.0389 24.0388 23.5312 24.0388 22.905C24.0388 22.2787 23.5313 21.7711 22.9049 21.7711H21.6954C21.0691 21.7711 20.5615 22.2787 20.5615 22.905C20.5615 23.5312 21.0691 24.0389 21.6954 24.0389Z" fill="black"/>
<path d="M21.6954 36.1339H22.9049C23.5313 36.1339 24.0388 35.6262 24.0388 35C24.0388 34.3738 23.5313 33.8661 22.9049 33.8661H21.6954C21.0691 33.8661 20.5615 34.3738 20.5615 35C20.5615 35.6262 21.0691 36.1339 21.6954 36.1339Z" fill="black"/>
<path d="M21.6954 48.2289H22.9049C23.5313 48.2289 24.0388 47.7213 24.0388 47.095C24.0388 46.4688 23.5313 45.9611 22.9049 45.9611H21.6954C21.0691 45.9611 20.5615 46.4688 20.5615 47.095C20.5615 47.7213 21.0691 48.2289 21.6954 48.2289Z" fill="black"/>
<path d="M21.6954 30.0864H22.9049C23.5313 30.0864 24.0388 29.5787 24.0388 28.9525C24.0388 28.3263 23.5313 27.8186 22.9049 27.8186H21.6954C21.0691 27.8186 20.5615 28.3263 20.5615 28.9525C20.5615 29.5787 21.0691 30.0864 21.6954 30.0864Z" fill="black"/>
<path d="M21.6954 42.1814H22.9049C23.5313 42.1814 24.0388 41.6737 24.0388 41.0475C24.0388 40.4213 23.5313 39.9136 22.9049 39.9136H21.6954C21.0691 39.9136 20.5615 40.4213 20.5615 41.0475C20.5615 41.6737 21.0691 42.1814 21.6954 42.1814Z" fill="black"/>
<path d="M21.6954 54.2765H22.9049C23.5313 54.2765 24.0388 53.7688 24.0388 53.1425C24.0388 52.5163 23.5313 52.0086 22.9049 52.0086H21.6954C21.0691 52.0086 20.5615 52.5163 20.5615 53.1425C20.5615 53.7688 21.0691 54.2765 21.6954 54.2765Z" fill="black"/>
<path d="M42.2571 39.9136C38.2973 39.9136 35.0757 43.1353 35.0757 47.095C35.0757 51.0548 38.2973 54.2765 42.2571 54.2765C43.8571 54.2765 45.3364 53.75 46.5315 52.8618C46.5427 52.8539 46.5549 52.8485 46.566 52.8402C46.5962 52.8175 46.6248 52.7935 46.6521 52.7685C48.3456 51.4536 49.4385 49.4002 49.4385 47.095C49.4385 43.1353 46.2169 39.9136 42.2571 39.9136ZM41.1232 42.3149V45.9611H37.477C37.9041 44.1611 39.3232 42.742 41.1232 42.3149ZM37.477 48.2289H41.6902L44.2179 51.5992C43.6167 51.8618 42.9539 52.0086 42.2571 52.0086C39.938 52.0086 37.9904 50.3932 37.477 48.2289ZM46.0312 50.2373L43.391 46.7171V42.3149C45.5553 42.8284 47.1707 44.776 47.1707 47.095C47.1707 48.2891 46.7421 49.3849 46.0312 50.2373Z" fill="black"/>
</svg>
