<svg width="94" height="94" viewBox="0 0 94 94" fill="none" xmlns="http://www.w3.org/2000/svg">
<path d="M89.7588 29.5613C89.7588 21.5304 83.9434 14.8317 76.3028 13.4559C74.9267 5.81534 68.2283 0 60.1975 0C54.7857 0 49.9813 2.64244 47.0005 6.70312C44.0197 2.64244 39.2153 0 33.8034 0C25.7726 0 19.0742 5.81534 17.6981 13.4556C10.0575 14.8317 4.24219 21.5304 4.24219 29.5609C4.24219 32.1347 5.17459 36.672 7.69518 39.3126C5.53223 42.087 4.24219 45.5739 4.24219 49.3563C4.24219 55.0742 7.22866 60.2932 11.9426 63.2389C11.2162 65.111 10.8405 67.11 10.8405 69.1517C10.8405 74.8104 13.8163 80.0795 18.5558 83.0425C19.5737 89.2361 24.9985 94 31.4468 94C36.3475 94 43.3338 88.7094 47.0005 85.6153C50.6671 88.7094 57.6535 94 62.5542 94C69.0025 94 74.4273 89.2361 75.4451 83.0428C80.1847 80.0798 83.1604 74.8107 83.1604 69.152C83.1604 67.11 82.7847 65.1113 82.0584 63.2392C86.7726 60.2936 89.7588 55.0745 89.7588 49.3566C89.7588 45.5742 88.4687 42.0873 86.3058 39.3129C88.826 36.6723 89.7588 32.1347 89.7588 29.5613ZM43.833 79.987C39.4378 83.8369 33.7708 87.6653 31.4465 87.6653C27.7897 87.6653 24.7718 84.6902 24.7193 81.0331C24.719 81.0188 24.7161 81.0049 24.7158 80.9906C24.8497 77.4487 27.7634 74.5664 31.3351 74.5151C33.0837 74.4901 34.4817 73.0519 34.4567 71.3026C34.432 69.5689 33.0188 68.1807 31.2908 68.1807C31.2753 68.1807 31.2598 68.1807 31.2442 68.181C26.122 68.2544 21.6901 71.3251 19.6177 75.6963C18.076 73.9027 17.1746 71.5869 17.1746 69.1517C17.1746 67.1546 17.7601 65.2259 18.8682 63.5741C19.4142 62.76 19.5528 61.7393 19.2429 60.8095C18.9334 59.8796 18.2108 59.1453 17.286 58.8209C13.2728 57.4131 10.5763 53.6098 10.5763 49.3563C10.5763 43.8258 15.0756 39.3265 20.6061 39.3265C26.1366 39.3265 30.6356 43.8258 30.6356 49.3563C30.6356 51.1053 32.0538 52.5235 33.8028 52.5235C35.5518 52.5235 36.97 51.1053 36.97 49.3563C36.97 40.333 29.6288 32.9921 20.6061 32.9921C17.6595 32.9921 14.8914 33.7757 12.5003 35.1446C11.609 34.3866 10.5766 31.5131 10.5766 29.5609C10.5766 24.0305 15.0759 19.5311 20.6064 19.5311C22.3554 19.5311 23.7736 18.1129 23.7736 16.3639C23.7736 10.8334 28.2726 6.3344 33.8031 6.3344C39.3336 6.3344 43.833 10.8334 43.833 16.3639V79.987ZM60.1978 52.5235C61.9468 52.5235 63.365 51.1053 63.365 49.3563C63.365 43.8258 67.864 39.3265 73.3945 39.3265C78.925 39.3265 83.4244 43.8258 83.4244 49.3563C83.4244 53.6098 80.7278 57.4134 76.7146 58.8209C75.7898 59.1453 75.0672 59.8796 74.7577 60.8095C74.4482 61.7393 74.5868 62.76 75.1324 63.5741C76.2405 65.2262 76.826 67.1546 76.826 69.1517C76.826 71.5872 75.9246 73.903 74.383 75.6966C72.3108 71.3254 67.8786 68.2548 62.7564 68.1813C62.7409 68.181 62.7254 68.181 62.7099 68.181C60.9818 68.181 59.5686 69.5695 59.5439 71.303C59.5189 73.0519 60.9166 74.4904 62.6656 74.5154C66.2385 74.5664 69.1525 77.45 69.2851 80.9929C69.2848 81.0065 69.282 81.0198 69.2816 81.0334C69.2294 84.6902 66.2116 87.6656 62.5545 87.6656C60.2301 87.6656 54.5629 83.8366 50.168 79.9874V16.3639C50.168 10.8334 54.6673 6.3344 60.1978 6.3344C65.7283 6.3344 70.2273 10.8334 70.2273 16.3639C70.2273 18.1129 71.6456 19.5311 73.3945 19.5311C78.925 19.5311 83.4244 24.0305 83.4244 29.5609C83.4241 31.5131 82.3916 34.3866 81.5007 35.1446C79.1099 33.7757 76.3415 32.9921 73.3945 32.9921C64.3715 32.9921 57.0306 40.3333 57.0306 49.3563C57.0306 51.1053 58.4488 52.5235 60.1978 52.5235Z" fill="#5E9C59"/>
</svg>
