<svg width="107" height="107" viewBox="0 0 107 107" fill="none" xmlns="http://www.w3.org/2000/svg">
<path d="M48.0326 40.2465C48.9846 39.6173 49.8722 39.0254 50.6781 38.5378C52.5967 37.3783 53.2138 34.8819 52.0504 32.9639C50.8936 31.045 48.3963 30.4328 46.4789 31.5896C45.5838 32.1295 44.5971 32.7828 43.5437 33.48C40.1365 35.739 34.9539 39.2546 32.0458 38.4327C29.9202 37.832 29.6638 36.3678 28.9642 35.3066C27.4585 32.5279 24.2593 30.6837 21.3685 30.744C21.3685 30.744 18.7901 30.744 15.649 31.9798C1.49512 37.0274 1.45735 40.3761 1.45912 42.0139C1.46111 43.5074 1.4918 44.9507 5.68166 47.3872H0.0134715L0 94.5835H35.3497L37.6962 72.9833C37.6962 72.9833 25.9748 72.1198 20.1373 71.2744C13.1239 70.259 11.8976 63.7938 11.8976 63.7938L8.24766 48.7428C10.3393 49.7615 13.0548 50.93 16.6397 52.3118C17.1196 52.4963 17.6121 52.5839 18.0973 52.5839C19.7283 52.5839 21.2649 51.5945 21.8872 49.9839C22.6929 47.8905 21.6494 45.5399 19.5573 44.7349C17.3506 43.8846 14.8809 42.8429 12.8357 41.9017C13.186 41.7402 13.5707 41.5742 13.9499 41.4066L19.6196 43.6589C23.042 44.9805 23.9981 47.7492 22.9861 50.3803C22.2306 52.343 19.9504 54.7871 15.9487 53.2069C14.7131 52.7193 13.6005 52.286 12.5464 51.8514L14.3072 63.2925C14.8087 66.549 16.8078 68.2352 20.2718 69.1685C21.9449 69.8672 40.0799 71.2435 40.0799 71.2435C39.4693 78.3481 38.2257 90.0058 38.076 91.3689C37.6694 94.2027 39.504 96.9171 42.341 97.5569C42.7508 97.6479 43.1612 97.6918 43.5616 97.6918C46.0942 97.6918 48.378 95.9423 48.957 93.369C49.2006 92.2843 51.3282 66.9057 51.3483 66.6528C51.4762 65.1142 50.8885 63.4367 49.847 62.2984C48.5102 60.8367 47.3119 59.5447 33.0706 59.0622L31.1355 46.5003C31.7148 46.5873 32.2943 46.6452 32.8749 46.6452C38.3841 46.6454 43.8679 43.009 48.0326 40.2465Z" fill="#5E9C59"/>
<path d="M19.6792 30.2208C25.4542 30.2208 30.1357 25.5392 30.1357 19.7643C30.1357 13.9893 25.4542 9.30771 19.6792 9.30771C13.9042 9.30771 9.22266 13.9893 9.22266 19.7643C9.22266 25.5392 13.9042 30.2208 19.6792 30.2208Z" fill="#5E9C59"/>
<path d="M106.987 47.3872H101.318C105.508 44.9507 105.539 43.5074 105.541 42.0139C105.543 40.3761 105.505 37.0274 91.351 31.9798C88.2095 30.744 85.6318 30.744 85.6318 30.744C82.7407 30.6837 79.5418 32.5279 78.0361 35.3066C77.336 36.3678 77.08 37.8322 74.9544 38.4327C72.0461 39.2549 66.8633 35.739 63.4566 33.48C62.4029 32.783 61.4164 32.1295 60.5209 31.5896C58.604 30.4326 56.1066 31.045 54.9496 32.9639C53.7858 34.8819 54.4031 37.3783 56.322 38.5378C57.1276 39.0254 58.0156 39.6173 58.9675 40.2465C63.1319 43.009 68.6157 46.6454 74.1249 46.6454C74.7055 46.6454 75.2852 46.5876 75.8643 46.5006L73.9295 59.0624C59.6881 59.5452 58.4898 60.8369 57.1528 62.2987C56.1111 63.4369 55.5236 65.1144 55.6517 66.6531C55.6718 66.9059 57.7994 92.2845 58.0428 93.3693C58.6221 95.9426 60.9058 97.6921 63.4385 97.6921C63.8389 97.6921 64.249 97.6481 64.6588 97.5572C67.4956 96.9176 69.3304 94.203 68.924 91.3691C68.7738 90.006 67.53 78.3483 66.9201 71.2437C66.9201 71.2437 85.0552 69.8674 86.7283 69.1687C90.192 68.2352 92.1909 66.5493 92.6928 63.2927L94.4534 51.8516C93.3995 52.2862 92.2863 52.7193 91.0511 53.2072C87.0494 54.7871 84.7692 52.343 84.0136 50.3806C83.0015 47.7494 83.9578 44.9807 87.3802 43.6592L93.0497 41.4068C93.4294 41.5744 93.8138 41.7402 94.1641 41.9019C92.1191 42.8431 89.6496 43.8849 87.4427 44.7351C85.3504 45.5401 84.3069 47.8908 85.1126 49.9842C85.7349 51.5948 87.2715 52.5842 88.9023 52.5842C89.3875 52.5842 89.8804 52.4965 90.3603 52.3121C93.945 50.9305 96.6605 49.762 98.7521 48.743L95.1022 63.794C95.1022 63.794 93.8759 70.2592 86.8625 71.2747C81.025 72.1201 69.3039 72.9836 69.3039 72.9836L71.6501 94.5837H107L106.987 47.3872Z" fill="#5E9C59"/>
<path d="M87.3218 30.2208C93.0968 30.2208 97.7783 25.5392 97.7783 19.7643C97.7783 13.9893 93.0968 9.30771 87.3218 9.30771C81.5468 9.30771 76.8652 13.9893 76.8652 19.7643C76.8652 25.5392 81.5468 30.2208 87.3218 30.2208Z" fill="#5E9C59"/>
</svg>
