<svg width="218" height="208" viewBox="0 0 218 208" fill="none" xmlns="http://www.w3.org/2000/svg">
<path d="M176.331 207.987L108.973 172.445L41.5992 207.96L54.4798 132.715L-0.0103891 79.4117L75.3084 68.4481L109.006 -0.00919206L142.676 68.4624L217.99 79.4559L163.48 132.736L176.331 207.987Z" fill="#FFCC00"/>
<path d="M142.903 68.0265C108.792 114.607 108.422 115.113 108.422 115.113L217.76 79.1961L142.903 68.0265Z" fill="#FFE680"/>
<path d="M108.983 114.112V172.597L40.9297 207.634L108.983 114.112Z" fill="#FFDD55"/>
<path d="M108.982 114.112L175.894 205.852L163.335 131.556L108.982 114.112Z" fill="#FFDD55"/>
<path d="M0.431641 79.2749L108.988 114.115L75.4476 68.1278L0.431641 79.2749Z" fill="#FFE680"/>
<path d="M108.982 114.112V0.141846L142.465 68.1019L108.982 114.112Z" fill="#FFDD55"/>
<path d="M41.625 206.689L54.2648 131.766L108.992 114.112L41.625 206.689Z" fill="#FFD42A"/>
</svg>
