<svg width="54" height="54" viewBox="0 0 54 54" fill="none" xmlns="http://www.w3.org/2000/svg">
<g clip-path="url(#clip0_196_125)">
<path d="M53.9524 20.8569C53.8384 20.507 53.5358 20.2518 53.1714 20.1986L35.686 17.6575L27.8663 1.81328C27.7039 1.48271 27.3676 1.27393 27.0003 1.27393C26.633 1.27393 26.2956 1.48271 26.1342 1.81328L18.3136 17.6584L0.828149 20.1996C0.463748 20.2528 0.162174 20.507 0.0471512 20.8578C-0.0659388 21.2068 0.0278196 21.5915 0.291696 21.8476L12.9452 34.1812L9.95751 51.5971C9.89565 51.9595 10.0445 52.3259 10.3412 52.5424C10.6399 52.7608 11.0352 52.7889 11.3591 52.6158L27.0003 44.3941L42.6396 52.6158C42.7807 52.6903 42.9363 52.727 43.09 52.727C43.2901 52.727 43.4892 52.6651 43.6583 52.5424C43.956 52.3259 44.1049 51.9595 44.0421 51.5971L41.0553 34.1822L53.7089 21.8476C53.9718 21.5895 54.0665 21.2058 53.9524 20.8569Z" fill="#FFD42A"/>
</g>
<defs>
<clipPath id="clip0_196_125">
<rect width="54" height="54" fill="white"/>
</clipPath>
</defs>
</svg>
