<svg width="15" height="15" viewBox="0 0 25 25" fill="none" xmlns="http://www.w3.org/2000/svg">
<path d="M12.4998 0C5.60744 0 0 5.6075 0 12.5C0 19.3924 5.60744 25 12.4998 25C19.3926 25 25 19.3924 25 12.5C25 5.6075 19.3926 0 12.4998 0ZM12.4998 23.3606C6.51169 23.3606 1.63937 18.4885 1.63937 12.5C1.63937 6.51144 6.51169 1.63944 12.4998 1.63944C18.4883 1.63944 23.3605 6.5115 23.3605 12.5C23.3606 18.4885 18.4883 23.3606 12.4998 23.3606Z" fill="#444444"/>
<path d="M12.4998 5.71138C10.3013 5.71138 8.51294 7.49988 8.51294 9.69844C8.51294 10.1511 8.87988 10.5181 9.3325 10.5181C9.78538 10.5181 10.1523 10.1511 10.1523 9.69844C10.1523 8.40407 11.2053 7.35082 12.4998 7.35082C13.7947 7.35082 14.8476 8.40407 14.8476 9.69844C14.8476 10.9931 13.7946 12.0463 12.4998 12.0463C12.0471 12.0463 11.6802 12.4134 11.6802 12.8659V15.7212C11.6802 16.1739 12.0471 16.5409 12.4998 16.5409C12.9524 16.5409 13.3196 16.1739 13.3196 15.7212V13.6001C15.1261 13.2211 16.4871 11.6159 16.4871 9.69838C16.4871 7.49988 14.6985 5.71138 12.4998 5.71138Z" fill="#444444"/>
<path d="M12.5003 17.1086C11.9324 17.1086 11.4712 17.5693 11.4712 18.1375C11.4712 18.7057 11.9324 19.1666 12.5003 19.1666C13.0686 19.1666 13.5288 18.7057 13.5288 18.1375C13.5288 17.5693 13.0686 17.1086 12.5003 17.1086Z" fill="#444444"/>
</svg>
