<svg width="183" height="183" viewBox="0 0 183 183" fill="none" xmlns="http://www.w3.org/2000/svg">
<g clip-path="url(#clip0_52_11)">
<path d="M94.4881 35.0425C102.878 35.0425 109.679 28.2412 109.679 19.8513C109.679 11.4614 102.878 4.66009 94.4881 4.66009C86.0982 4.66009 79.2969 11.4614 79.2969 19.8513C79.2969 28.2412 86.0982 35.0425 94.4881 35.0425Z" fill="black"/>
<path d="M149.741 72.5902C146.401 70.6815 142.145 71.8424 140.236 75.1833C139.112 77.1505 139.06 79.4327 139.884 81.3685L138.787 83.2886L128.341 72.2181L119.707 45.737C118.844 43.0906 116.504 41.3414 113.898 41.0994V41.004H80.2149C80.1356 40.9696 80.0609 40.9296 79.9794 40.8978L59.6542 32.9323L57.9271 13.2261L61.6264 13.2411C62.8921 14.9214 64.8943 16.0161 67.1608 16.0258C71.0084 16.0412 74.1402 12.9352 74.1555 9.08785C74.1709 5.24018 71.0649 2.10844 67.2172 2.09307C64.9515 2.08378 62.9396 3.16248 61.6607 4.83236L57.0486 4.81378C56.1464 1.80642 53.2323 -0.256271 49.9809 0.0257364C47.1622 0.273073 44.9026 2.21638 44.1127 4.76159L42.2762 4.75409C41.0106 3.07384 39.0083 1.9787 36.7419 1.9694C32.895 1.95332 29.7629 5.05969 29.7471 8.90699C29.7314 12.7547 32.8378 15.8864 36.6854 15.9018C38.9511 15.9107 40.9631 14.8324 42.2419 13.1625L44.3432 13.1707L46.5446 38.2897C46.7691 40.8485 48.4232 43.0595 50.8147 43.9963L75.0434 53.4913C75.0548 53.4959 75.0666 53.4988 75.0788 53.503V100.897L58.3135 172.19C57.2019 176.918 60.1331 181.653 64.8611 182.764C69.5916 183.876 74.3239 180.943 75.4355 176.217L92.4399 103.908H96.5374L113.542 176.217C114.653 180.944 119.386 183.876 124.116 182.764C128.845 181.653 131.776 176.918 130.664 172.19L113.898 100.897V71.559L115.95 77.8525C116.259 78.8022 116.775 79.6714 117.461 80.3977L131.772 95.565L130.267 98.1988C128.182 98.4723 126.242 99.6761 125.118 101.644C123.21 104.984 124.371 109.24 127.711 111.149C131.052 113.057 135.308 111.896 137.216 108.556C138.341 106.588 138.393 104.306 137.569 102.37L138.432 100.859C140.627 101.319 142.859 100.677 144.466 99.1621C147.155 96.6244 147.3 92.4068 144.816 89.6868L147.185 85.5396C149.271 85.2662 151.21 84.062 152.334 82.0948C154.243 78.7543 153.082 74.4992 149.741 72.5902Z" fill="black"/>
</g>
<defs>
<clipPath id="clip0_52_11">
<rect width="183" height="183" fill="white"/>
</clipPath>
</defs>
</svg>
