<svg width="91" height="92" viewBox="0 0 91 92" fill="none" xmlns="http://www.w3.org/2000/svg">
<path d="M45.4991 0C20.4111 0 0 20.6356 0 46C0 71.3642 20.4111 92 45.4991 92C70.5889 92 91 71.3642 91 46C91 20.6356 70.5889 0 45.4991 0ZM45.4991 85.9671C23.7025 85.9671 5.96733 68.0377 5.96733 46C5.96733 23.9621 23.7025 6.03313 45.4991 6.03313C67.2972 6.03313 85.0322 23.9623 85.0322 46C85.0324 68.0377 67.2972 85.9671 45.4991 85.9671Z" fill="black"/>
<path d="M45.4993 21.0179C37.4968 21.0179 30.9873 27.5995 30.9873 35.6902C30.9873 37.3561 32.323 38.7067 33.9705 38.7067C35.619 38.7067 36.9546 37.3559 36.9546 35.6902C36.9546 30.9269 40.7875 27.051 45.4993 27.051C50.2129 27.051 54.0456 30.9269 54.0456 35.6902C54.0456 40.4545 50.2124 44.3304 45.4993 44.3304C43.8517 44.3304 42.5161 45.6812 42.5161 47.3466V57.854C42.5161 59.5199 43.8517 60.8704 45.4993 60.8704C47.1469 60.8704 48.4834 59.5199 48.4834 57.854V50.0482C55.0593 48.6535 60.0131 42.7466 60.0131 35.69C60.0131 27.5995 53.5027 21.0179 45.4993 21.0179Z" fill="black"/>
<path d="M45.5007 62.9597C43.4336 62.9597 41.7549 64.6551 41.7549 66.746C41.7549 68.8369 43.4336 70.533 45.5007 70.533C47.5695 70.533 49.2446 68.8369 49.2446 66.746C49.2446 64.6551 47.5695 62.9597 45.5007 62.9597Z" fill="black"/>
</svg>
