<svg width="91" height="92" viewBox="0 0 91 92" fill="none" xmlns="http://www.w3.org/2000/svg">
<path d="M72.2303 6.35853H60.883C60.2662 4.51257 58.5382 3.17927 56.5067 3.17927H51.7079C50.2515 1.19918 47.9445 0 45.5003 0C43.0562 0 40.749 1.19918 39.2924 3.17927H34.4938C32.4623 3.17927 30.7343 4.51257 30.1175 6.35853H18.7702C15.3565 6.35853 12.5791 9.16642 12.5791 12.6177V85.7408C12.5791 89.1921 15.3565 92 18.7702 92H72.2303C75.6441 92 78.4214 89.1921 78.4214 85.7408V12.6177C78.4214 9.16642 75.6441 6.35853 72.2303 6.35853ZM34.4938 17.2873H56.5067C57.8871 17.2873 59.1271 16.6711 59.974 15.6976H69.1839V82.6609H21.8167V15.6976H31.0266C31.8735 16.6711 33.1135 17.2873 34.4938 17.2873ZM34.4938 6.15983H40.0831C40.6079 6.15983 41.0932 5.87787 41.3571 5.41926C42.2363 3.89222 43.785 2.98056 45.5003 2.98056C47.2157 2.98056 48.7643 3.89222 49.6432 5.41906C49.9072 5.87767 50.3926 6.15983 50.9172 6.15983H56.5067C57.428 6.15983 58.1774 6.91749 58.1774 7.84881V12.6177C58.1774 13.549 57.428 14.3067 56.5067 14.3067H34.4938C33.5726 14.3067 32.8232 13.549 32.8232 12.6177V7.84881C32.8232 6.91749 33.5726 6.15983 34.4938 6.15983ZM75.4733 85.7408C75.4733 87.5486 74.0184 89.0194 72.2303 89.0194H18.7702C16.9821 89.0194 15.5273 87.5486 15.5273 85.7408V12.6177C15.5273 10.8099 16.9821 9.33909 18.7702 9.33909H29.875V12.6177C29.875 12.6511 29.8768 12.6839 29.8776 12.7171H20.3426C19.5283 12.7171 18.8685 13.3843 18.8685 14.2073V84.1512C18.8685 84.9742 19.5283 85.6415 20.3426 85.6415H70.6579C71.4722 85.6415 72.132 84.9742 72.132 84.1512V14.2073C72.132 13.3843 71.4722 12.7171 70.6579 12.7171H61.123C61.1238 12.6839 61.1255 12.6511 61.1255 12.6177V9.33909H72.2303C74.0184 9.33909 75.4733 10.8099 75.4733 12.6177V85.7408Z" fill="black"/>
<path d="M45.5005 9.33908C45.8894 9.33908 46.2689 9.18012 46.5421 8.90193C46.8173 8.62573 46.9745 8.24025 46.9745 7.8488C46.9745 7.45735 46.8173 7.07187 46.5421 6.79567C46.2689 6.51748 45.8896 6.35852 45.5005 6.35852C45.1113 6.35852 44.732 6.51748 44.4588 6.79567C44.1836 7.07187 44.0264 7.45537 44.0264 7.8488C44.0264 8.24224 44.1836 8.62573 44.4588 8.90193C44.732 9.18012 45.1113 9.33908 45.5005 9.33908Z" fill="black"/>
<path d="M36.0659 31.594H62.7959C63.6102 31.594 64.27 30.9267 64.27 30.1037C64.27 29.2807 63.6102 28.6134 62.7959 28.6134H36.0659C35.2516 28.6134 34.5918 29.2807 34.5918 30.1037C34.5918 30.9267 35.2516 31.594 36.0659 31.594Z" fill="black"/>
<path d="M36.0659 47.4903H62.7959C63.6102 47.4903 64.27 46.823 64.27 46C64.27 45.177 63.6102 44.5097 62.7959 44.5097H36.0659C35.2516 44.5097 34.5918 45.177 34.5918 46C34.5918 46.823 35.2516 47.4903 36.0659 47.4903Z" fill="black"/>
<path d="M36.0659 63.3866H40.7829C41.5972 63.3866 42.257 62.7193 42.257 61.8963C42.257 61.0733 41.5972 60.406 40.7829 60.406H36.0659C35.2516 60.406 34.5918 61.0733 34.5918 61.8963C34.5918 62.7193 35.2516 63.3866 36.0659 63.3866Z" fill="black"/>
<path d="M36.0659 39.5421H62.7959C63.6102 39.5421 64.27 38.8749 64.27 38.0518C64.27 37.2288 63.6102 36.5616 62.7959 36.5616H36.0659C35.2516 36.5616 34.5918 37.2288 34.5918 38.0518C34.5918 38.8749 35.2516 39.5421 36.0659 39.5421Z" fill="black"/>
<path d="M36.0659 55.4384H42.3553C43.1696 55.4384 43.8294 54.7712 43.8294 53.9482C43.8294 53.1251 43.1696 52.4579 42.3553 52.4579H36.0659C35.2516 52.4579 34.5918 53.1251 34.5918 53.9482C34.5918 54.7712 35.2516 55.4384 36.0659 55.4384Z" fill="black"/>
<path d="M36.0659 71.3348H42.3553C43.1696 71.3348 43.8294 70.6675 43.8294 69.8445C43.8294 69.0215 43.1696 68.3542 42.3553 68.3542H36.0659C35.2516 68.3542 34.5918 69.0215 34.5918 69.8445C34.5918 70.6675 35.2516 71.3348 36.0659 71.3348Z" fill="black"/>
<path d="M28.2046 31.594H29.7769C30.5912 31.594 31.251 30.9267 31.251 30.1037C31.251 29.2807 30.5912 28.6134 29.7769 28.6134H28.2046C27.3903 28.6134 26.7305 29.2807 26.7305 30.1037C26.7305 30.9267 27.3903 31.594 28.2046 31.594Z" fill="black"/>
<path d="M28.2046 47.4903H29.7769C30.5912 47.4903 31.251 46.823 31.251 46C31.251 45.177 30.5912 44.5097 29.7769 44.5097H28.2046C27.3903 44.5097 26.7305 45.177 26.7305 46C26.7305 46.823 27.3903 47.4903 28.2046 47.4903Z" fill="black"/>
<path d="M28.2046 63.3866H29.7769C30.5912 63.3866 31.251 62.7193 31.251 61.8963C31.251 61.0733 30.5912 60.406 29.7769 60.406H28.2046C27.3903 60.406 26.7305 61.0733 26.7305 61.8963C26.7305 62.7193 27.3903 63.3866 28.2046 63.3866Z" fill="black"/>
<path d="M28.2046 39.5421H29.7769C30.5912 39.5421 31.251 38.8749 31.251 38.0518C31.251 37.2288 30.5912 36.5616 29.7769 36.5616H28.2046C27.3903 36.5616 26.7305 37.2288 26.7305 38.0518C26.7305 38.8749 27.3903 39.5421 28.2046 39.5421Z" fill="black"/>
<path d="M28.2046 55.4384H29.7769C30.5912 55.4384 31.251 54.7712 31.251 53.9482C31.251 53.1251 30.5912 52.4579 29.7769 52.4579H28.2046C27.3903 52.4579 26.7305 53.1251 26.7305 53.9482C26.7305 54.7712 27.3903 55.4384 28.2046 55.4384Z" fill="black"/>
<path d="M28.2046 71.3348H29.7769C30.5912 71.3348 31.251 70.6675 31.251 69.8445C31.251 69.0215 30.5912 68.3542 29.7769 68.3542H28.2046C27.3903 68.3542 26.7305 69.0215 26.7305 69.8445C26.7305 70.6675 27.3903 71.3348 28.2046 71.3348Z" fill="black"/>
<path d="M54.9345 52.4579C49.7868 52.4579 45.5986 56.6921 45.5986 61.8963C45.5986 67.1006 49.7868 71.3348 54.9345 71.3348C57.0145 71.3348 58.9375 70.6429 60.4912 69.4755C60.5057 69.4652 60.5216 69.458 60.536 69.4471C60.5753 69.4173 60.6124 69.3857 60.648 69.3529C62.8495 67.6248 64.2703 64.926 64.2703 61.8963C64.2703 56.6921 60.0822 52.4579 54.9345 52.4579ZM53.4604 55.6139V60.4061H48.7203C49.2756 58.0403 51.1203 56.1752 53.4604 55.6139ZM48.7203 63.3866H54.1974L57.4835 67.8161C56.702 68.1613 55.8404 68.3542 54.9345 68.3542C51.9197 68.3542 49.3878 66.2311 48.7203 63.3866ZM59.8408 66.0262L56.4086 61.3996V55.6139C59.2221 56.2887 61.3222 58.8484 61.3222 61.8963C61.3222 63.4657 60.765 64.9059 59.8408 66.0262Z" fill="black"/>
</svg>
